<svg xmlns="http://www.w3.org/2000/svg" xmlns:xlink="http://www.w3.org/1999/xlink" contentStyleType="text/css" height="853px" preserveAspectRatio="none" style="width:1285px;height:853px;background:#FFFFFF;" version="1.1" viewBox="0 0 1285 853" width="1285px" zoomAndPan="magnify"><defs/><g><text fill="#000000" font-family="sans-serif" font-size="14" font-weight="bold" lengthAdjust="spacing" textLength="380.9395" x="453.333" y="27.9951">Frequency Access Integration for an Application</text><rect fill="none" height="436.6641" style="stroke:#000000;stroke-width:1.5;" width="1268.6055" x="10" y="364.7891"/><line style="stroke:#181818;stroke-width:0.5;stroke-dasharray:5.0,5.0;" x1="75" x2="75" y1="73.5938" y2="818.4531"/><line style="stroke:#181818;stroke-width:0.5;stroke-dasharray:5.0,5.0;" x1="424.8784" x2="424.8784" y1="73.5938" y2="818.4531"/><line style="stroke:#181818;stroke-width:0.5;stroke-dasharray:5.0,5.0;" x1="948.6113" x2="948.6113" y1="73.5938" y2="818.4531"/><line style="stroke:#181818;stroke-width:0.5;stroke-dasharray:5.0,5.0;" x1="1223.9551" x2="1223.9551" y1="73.5938" y2="818.4531"/><rect fill="#E2E2F0" height="30.2969" rx="2.5" ry="2.5" style="stroke:#181818;stroke-width:0.5;" width="111.5967" x="20" y="42.2969"/><text fill="#000000" font-family="sans-serif" font-size="14" lengthAdjust="spacing" textLength="97.5967" x="27" y="62.292">Website / App</text><rect fill="#E2E2F0" height="30.2969" rx="2.5" ry="2.5" style="stroke:#181818;stroke-width:0.5;" width="111.5967" x="20" y="817.4531"/><text fill="#000000" font-family="sans-serif" font-size="14" lengthAdjust="spacing" textLength="97.5967" x="27" y="837.4482">Website / App</text><rect fill="#E2E2F0" height="30.2969" rx="2.5" ry="2.5" style="stroke:#181818;stroke-width:0.5;" width="157.0352" x="346.8784" y="42.2969"/><text fill="#000000" font-family="sans-serif" font-size="14" lengthAdjust="spacing" textLength="143.0352" x="353.8784" y="62.292">Application Backend</text><rect fill="#E2E2F0" height="30.2969" rx="2.5" ry="2.5" style="stroke:#181818;stroke-width:0.5;" width="157.0352" x="346.8784" y="817.4531"/><text fill="#000000" font-family="sans-serif" font-size="14" lengthAdjust="spacing" textLength="143.0352" x="353.8784" y="837.4482">Application Backend</text><rect fill="#E2E2F0" height="30.2969" rx="2.5" ry="2.5" style="stroke:#181818;stroke-width:0.5;" width="140.2734" x="878.6113" y="42.2969"/><text fill="#000000" font-family="sans-serif" font-size="14" lengthAdjust="spacing" textLength="126.2734" x="885.6113" y="62.292">Frequency Access</text><rect fill="#E2E2F0" height="30.2969" rx="2.5" ry="2.5" style="stroke:#181818;stroke-width:0.5;" width="140.2734" x="878.6113" y="817.4531"/><text fill="#000000" font-family="sans-serif" font-size="14" lengthAdjust="spacing" textLength="126.2734" x="885.6113" y="837.4482">Frequency Access</text><rect fill="#E2E2F0" height="30.2969" rx="2.5" ry="2.5" style="stroke:#181818;stroke-width:0.5;" width="87.6504" x="1180.9551" y="42.2969"/><text fill="#000000" font-family="sans-serif" font-size="14" lengthAdjust="spacing" textLength="73.6504" x="1187.9551" y="62.292">Frequency</text><rect fill="#E2E2F0" height="30.2969" rx="2.5" ry="2.5" style="stroke:#181818;stroke-width:0.5;" width="87.6504" x="1180.9551" y="817.4531"/><text fill="#000000" font-family="sans-serif" font-size="14" lengthAdjust="spacing" textLength="73.6504" x="1187.9551" y="837.4482">Frequency</text><polygon fill="#181818" points="413.396,100.7266,423.396,104.7266,413.396,108.7266,417.396,104.7266" style="stroke:#181818;stroke-width:1.0;"/><line style="stroke:#181818;stroke-width:1.0;" x1="75.7983" x2="419.396" y1="104.7266" y2="104.7266"/><text fill="#000000" font-family="sans-serif" font-size="13" font-weight="bold" lengthAdjust="spacing" textLength="9.0454" x="82.7983" y="99.6606">1</text><text fill="#000000" font-family="sans-serif" font-size="13" lengthAdjust="spacing" textLength="233.8032" x="95.8438" y="99.6606">Sign In With Frequency Button Click</text><line style="stroke:#181818;stroke-width:1.0;" x1="425.396" x2="467.396" y1="133.8594" y2="133.8594"/><line style="stroke:#181818;stroke-width:1.0;" x1="467.396" x2="467.396" y1="133.8594" y2="146.8594"/><line style="stroke:#181818;stroke-width:1.0;" x1="426.396" x2="467.396" y1="146.8594" y2="146.8594"/><polygon fill="#181818" points="436.396,142.8594,426.396,146.8594,436.396,150.8594,432.396,146.8594" style="stroke:#181818;stroke-width:1.0;"/><text fill="#000000" font-family="sans-serif" font-size="13" font-weight="bold" lengthAdjust="spacing" textLength="9.0454" x="432.396" y="128.7935">2</text><text fill="#000000" font-family="sans-serif" font-size="13" lengthAdjust="spacing" textLength="220.4097" x="445.4414" y="128.7935">Generate &amp; Sign Request Payload</text><polygon fill="#181818" points="936.748,171.9922,946.748,175.9922,936.748,179.9922,940.748,175.9922" style="stroke:#181818;stroke-width:1.0;"/><line style="stroke:#181818;stroke-width:1.0;" x1="425.396" x2="942.748" y1="175.9922" y2="175.9922"/><text fill="#000000" font-family="sans-serif" font-size="13" font-weight="bold" lengthAdjust="spacing" textLength="9.0454" x="432.396" y="170.9263">3</text><text fill="#000000" font-family="sans-serif" font-size="13" lengthAdjust="spacing" textLength="238.0371" x="445.4414" y="170.9263">POST /siwa/api/request SiwaRequest</text><polygon fill="#181818" points="436.396,201.125,426.396,205.125,436.396,209.125,432.396,205.125" style="stroke:#181818;stroke-width:1.0;"/><line style="stroke:#181818;stroke-width:1.0;stroke-dasharray:2.0,2.0;" x1="430.396" x2="947.748" y1="205.125" y2="205.125"/><text fill="#000000" font-family="sans-serif" font-size="13" font-weight="bold" lengthAdjust="spacing" textLength="9.0454" x="442.396" y="200.0591">4</text><text fill="#000000" font-family="sans-serif" font-size="13" lengthAdjust="spacing" textLength="223.2026" x="455.4414" y="200.0591">201 Created with Location Header</text><polygon fill="#181818" points="86.7983,245.3906,76.7983,249.3906,86.7983,253.3906,82.7983,249.3906" style="stroke:#181818;stroke-width:1.0;"/><line style="stroke:#181818;stroke-width:1.0;" x1="80.7983" x2="424.396" y1="249.3906" y2="249.3906"/><text fill="#000000" font-family="sans-serif" font-size="13" font-weight="bold" lengthAdjust="spacing" textLength="9.0454" x="92.7983" y="236.7583">5</text><text fill="#000000" font-family="sans-serif" font-size="13" lengthAdjust="spacing" textLength="241.6807" x="105.8438" y="229.1919">Navigate User to Location in Browser</text><text fill="#000000" font-family="sans-serif" font-size="13" lengthAdjust="spacing" textLength="237.1865" x="105.8438" y="244.3247">Option: Embedded Browser for Apps</text><polygon fill="#181818" points="936.748,274.5234,946.748,278.5234,936.748,282.5234,940.748,278.5234" style="stroke:#181818;stroke-width:1.0;"/><line style="stroke:#181818;stroke-width:1.0;" x1="75.7983" x2="942.748" y1="278.5234" y2="278.5234"/><text fill="#000000" font-family="sans-serif" font-size="13" font-weight="bold" lengthAdjust="spacing" textLength="9.0454" x="82.7983" y="273.4575">6</text><text fill="#000000" font-family="sans-serif" font-size="13" lengthAdjust="spacing" textLength="177.8804" x="95.8438" y="273.4575">GET Location Header Value</text><line style="stroke:#181818;stroke-width:1.0;" x1="948.748" x2="990.748" y1="307.6563" y2="307.6563"/><line style="stroke:#181818;stroke-width:1.0;" x1="990.748" x2="990.748" y1="307.6563" y2="320.6563"/><line style="stroke:#181818;stroke-width:1.0;" x1="949.748" x2="990.748" y1="320.6563" y2="320.6563"/><polygon fill="#181818" points="959.748,316.6563,949.748,320.6563,959.748,324.6563,955.748,320.6563" style="stroke:#181818;stroke-width:1.0;"/><text fill="#000000" font-family="sans-serif" font-size="13" font-weight="bold" lengthAdjust="spacing" textLength="9.0454" x="955.748" y="302.5903">7</text><text fill="#000000" font-family="sans-serif" font-size="13" lengthAdjust="spacing" textLength="248.9868" x="968.7935" y="302.5903">User Authentication and Authorization</text><polygon fill="#181818" points="86.7983,345.7891,76.7983,349.7891,86.7983,353.7891,82.7983,349.7891" style="stroke:#181818;stroke-width:1.0;"/><line style="stroke:#181818;stroke-width:1.0;" x1="80.7983" x2="947.748" y1="349.7891" y2="349.7891"/><text fill="#000000" font-family="sans-serif" font-size="13" font-weight="bold" lengthAdjust="spacing" textLength="9.0454" x="92.7983" y="344.7231">8</text><text fill="#000000" font-family="sans-serif" font-size="13" lengthAdjust="spacing" textLength="571.3652" x="105.8438" y="344.7231">Redirect to callback url from the SiwaRequest with authorizationCode parameter added</text><path d="M10,364.7891 L74.4429,364.7891 L74.4429,371.9219 L64.4429,381.9219 L10,381.9219 L10,364.7891 " fill="#EEEEEE" style="stroke:#000000;stroke-width:1.5;"/><rect fill="none" height="436.6641" style="stroke:#000000;stroke-width:1.5;" width="1268.6055" x="10" y="364.7891"/><text fill="#000000" font-family="sans-serif" font-size="13" font-weight="bold" lengthAdjust="spacing" textLength="19.4429" x="25" y="377.856">alt</text><text fill="#000000" font-family="sans-serif" font-size="11" font-weight="bold" lengthAdjust="spacing" textLength="245.5449" x="89.4429" y="376.9995">[Application Backend resolves payload]</text><polygon fill="#181818" points="413.396,399.0547,423.396,403.0547,413.396,407.0547,417.396,403.0547" style="stroke:#181818;stroke-width:1.0;"/><line style="stroke:#181818;stroke-width:1.0;" x1="75.7983" x2="419.396" y1="403.0547" y2="403.0547"/><text fill="#000000" font-family="sans-serif" font-size="13" font-weight="bold" lengthAdjust="spacing" textLength="9.0454" x="82.7983" y="397.9888">9</text><text fill="#000000" font-family="sans-serif" font-size="13" lengthAdjust="spacing" textLength="312.5522" x="95.8438" y="397.9888">GET against callback url with authoricationCode</text><polygon fill="#181818" points="936.748,428.1875,946.748,432.1875,936.748,436.1875,940.748,432.1875" style="stroke:#181818;stroke-width:1.0;"/><line style="stroke:#181818;stroke-width:1.0;" x1="425.396" x2="942.748" y1="432.1875" y2="432.1875"/><text fill="#000000" font-family="sans-serif" font-size="13" font-weight="bold" lengthAdjust="spacing" textLength="18.0908" x="432.396" y="427.1216">10</text><text fill="#000000" font-family="sans-serif" font-size="13" lengthAdjust="spacing" textLength="477.2612" x="454.4868" y="427.1216">GET /siwa/api/payload trade authorizationCode for SiwaPayloadResponse</text><polygon fill="#181818" points="436.396,457.3203,426.396,461.3203,436.396,465.3203,432.396,461.3203" style="stroke:#181818;stroke-width:1.0;"/><line style="stroke:#181818;stroke-width:1.0;stroke-dasharray:2.0,2.0;" x1="430.396" x2="947.748" y1="461.3203" y2="461.3203"/><text fill="#000000" font-family="sans-serif" font-size="13" font-weight="bold" lengthAdjust="spacing" textLength="18.0908" x="442.396" y="456.2544">11</text><text fill="#000000" font-family="sans-serif" font-size="13" lengthAdjust="spacing" textLength="375.9272" x="464.4868" y="456.2544">SiwaPayloadResponse {signed payloads and credentials}</text><polygon fill="#181818" points="86.7983,486.4531,76.7983,490.4531,86.7983,494.4531,82.7983,490.4531" style="stroke:#181818;stroke-width:1.0;"/><line style="stroke:#181818;stroke-width:1.0;" x1="80.7983" x2="424.396" y1="490.4531" y2="490.4531"/><text fill="#000000" font-family="sans-serif" font-size="13" font-weight="bold" lengthAdjust="spacing" textLength="18.0908" x="92.7983" y="485.3872">12</text><text fill="#000000" font-family="sans-serif" font-size="13" lengthAdjust="spacing" textLength="122.8462" x="114.8892" y="485.3872">Post sign-in screen</text><polygon fill="#181818" points="1212.7803,515.5859,1222.7803,519.5859,1212.7803,523.5859,1216.7803,519.5859" style="stroke:#181818;stroke-width:1.0;"/><line style="stroke:#181818;stroke-width:1.0;" x1="425.396" x2="1218.7803" y1="519.5859" y2="519.5859"/><text fill="#000000" font-family="sans-serif" font-size="13" font-weight="bold" lengthAdjust="spacing" textLength="18.0908" x="432.396" y="514.52">13</text><text fill="#000000" font-family="sans-serif" font-size="13" lengthAdjust="spacing" textLength="347.4009" x="454.4868" y="514.52">If needed, submit required transactions to Frequency</text><polygon fill="#181818" points="436.396,544.7188,426.396,548.7188,436.396,552.7188,432.396,548.7188" style="stroke:#181818;stroke-width:1.0;"/><line style="stroke:#181818;stroke-width:1.0;stroke-dasharray:2.0,2.0;" x1="430.396" x2="1223.7803" y1="548.7188" y2="548.7188"/><text fill="#000000" font-family="sans-serif" font-size="13" font-weight="bold" lengthAdjust="spacing" textLength="18.0908" x="442.396" y="543.6528">14</text><text fill="#000000" font-family="sans-serif" font-size="13" lengthAdjust="spacing" textLength="117.4761" x="464.4868" y="543.6528">Transaction result</text><line style="stroke:#000000;stroke-width:1.0;stroke-dasharray:2.0,2.0;" x1="10" x2="1278.6055" y1="557.7188" y2="557.7188"/><text fill="#000000" font-family="sans-serif" font-size="11" font-weight="bold" lengthAdjust="spacing" textLength="187.8755" x="15" y="567.9292">[User Agent resolves payload]</text><line style="stroke:#181818;stroke-width:1.0;" x1="75.7983" x2="117.7983" y1="592.6563" y2="592.6563"/><line style="stroke:#181818;stroke-width:1.0;" x1="117.7983" x2="117.7983" y1="592.6563" y2="605.6563"/><line style="stroke:#181818;stroke-width:1.0;" x1="76.7983" x2="117.7983" y1="605.6563" y2="605.6563"/><polygon fill="#181818" points="86.7983,601.6563,76.7983,605.6563,86.7983,609.6563,82.7983,605.6563" style="stroke:#181818;stroke-width:1.0;"/><text fill="#000000" font-family="sans-serif" font-size="13" font-weight="bold" lengthAdjust="spacing" textLength="18.0908" x="82.7983" y="587.5903">15</text><text fill="#000000" font-family="sans-serif" font-size="13" lengthAdjust="spacing" textLength="224.6118" x="104.8892" y="587.5903">Pre-empted by OS (Universal Link)</text><polygon fill="#181818" points="936.748,630.7891,946.748,634.7891,936.748,638.7891,940.748,634.7891" style="stroke:#181818;stroke-width:1.0;"/><line style="stroke:#181818;stroke-width:1.0;" x1="75.7983" x2="942.748" y1="634.7891" y2="634.7891"/><text fill="#000000" font-family="sans-serif" font-size="13" font-weight="bold" lengthAdjust="spacing" textLength="18.0908" x="82.7983" y="629.7231">16</text><text fill="#000000" font-family="sans-serif" font-size="13" lengthAdjust="spacing" textLength="477.2612" x="104.8892" y="629.7231">GET /siwa/api/payload trade authorizationCode for SiwaPayloadResponse</text><polygon fill="#181818" points="86.7983,659.9219,76.7983,663.9219,86.7983,667.9219,82.7983,663.9219" style="stroke:#181818;stroke-width:1.0;"/><line style="stroke:#181818;stroke-width:1.0;stroke-dasharray:2.0,2.0;" x1="80.7983" x2="947.748" y1="663.9219" y2="663.9219"/><text fill="#000000" font-family="sans-serif" font-size="13" font-weight="bold" lengthAdjust="spacing" textLength="18.0908" x="92.7983" y="658.856">17</text><text fill="#000000" font-family="sans-serif" font-size="13" lengthAdjust="spacing" textLength="375.9272" x="114.8892" y="658.856">SiwaPayloadResponse {signed payloads and credentials}</text><line style="stroke:#181818;stroke-width:1.0;" x1="75.7983" x2="117.7983" y1="693.0547" y2="693.0547"/><line style="stroke:#181818;stroke-width:1.0;" x1="117.7983" x2="117.7983" y1="693.0547" y2="706.0547"/><line style="stroke:#181818;stroke-width:1.0;" x1="76.7983" x2="117.7983" y1="706.0547" y2="706.0547"/><polygon fill="#181818" points="86.7983,702.0547,76.7983,706.0547,86.7983,710.0547,82.7983,706.0547" style="stroke:#181818;stroke-width:1.0;"/><text fill="#000000" font-family="sans-serif" font-size="13" font-weight="bold" lengthAdjust="spacing" textLength="18.0908" x="82.7983" y="687.9888">18</text><text fill="#000000" font-family="sans-serif" font-size="13" lengthAdjust="spacing" textLength="122.8462" x="104.8892" y="687.9888">Post sign-in screen</text><polygon fill="#181818" points="413.396,731.1875,423.396,735.1875,413.396,739.1875,417.396,735.1875" style="stroke:#181818;stroke-width:1.0;"/><line style="stroke:#181818;stroke-width:1.0;" x1="75.7983" x2="419.396" y1="735.1875" y2="735.1875"/><text fill="#000000" font-family="sans-serif" font-size="13" font-weight="bold" lengthAdjust="spacing" textLength="18.0908" x="82.7983" y="730.1216">19</text><text fill="#000000" font-family="sans-serif" font-size="13" lengthAdjust="spacing" textLength="85.5347" x="104.8892" y="730.1216">Sign in result</text><polygon fill="#181818" points="1212.7803,760.3203,1222.7803,764.3203,1212.7803,768.3203,1216.7803,764.3203" style="stroke:#181818;stroke-width:1.0;"/><line style="stroke:#181818;stroke-width:1.0;" x1="425.396" x2="1218.7803" y1="764.3203" y2="764.3203"/><text fill="#000000" font-family="sans-serif" font-size="13" font-weight="bold" lengthAdjust="spacing" textLength="18.0908" x="432.396" y="759.2544">20</text><text fill="#000000" font-family="sans-serif" font-size="13" lengthAdjust="spacing" textLength="347.4009" x="454.4868" y="759.2544">If needed, submit required transactions to Frequency</text><polygon fill="#181818" points="436.396,789.4531,426.396,793.4531,436.396,797.4531,432.396,793.4531" style="stroke:#181818;stroke-width:1.0;"/><line style="stroke:#181818;stroke-width:1.0;stroke-dasharray:2.0,2.0;" x1="430.396" x2="1223.7803" y1="793.4531" y2="793.4531"/><text fill="#000000" font-family="sans-serif" font-size="13" font-weight="bold" lengthAdjust="spacing" textLength="18.0908" x="442.396" y="788.3872">21</text><text fill="#000000" font-family="sans-serif" font-size="13" lengthAdjust="spacing" textLength="117.4761" x="464.4868" y="788.3872">Transaction result</text><!--SRC=[pLHBRnCn4BxlhnZbW40Y2d3C0IcDIgbKaIXfwONBh3sRMd5iuqUYWFZlZ1tdLIL79FOu_cRcUumsggW9Ubyy_Knan1P6Gb08S6yYBJn6PGrqrWCQ63cdbIYbNkFGHoMKGnEXzqnjK95Wa34zm009pn4dlN23Oab65fmxXxscKJ0TNW6LrrOq3QPeJLgrv9k4_Szk27ErCAm1dbLyWUFKcnGP2MFcicnSGTwH8TP9y6RNDClO466AMsrHPbI7GvXEveym26g30tHgu2jgpeNQqNYAoHluzE4ZZ3tnI0cRlFx1Lk5V2ILJv8c99tx3jLhanK-1F4Hxn2dsoDiDbt-OYSkb8TooEYbvP7qfeR2heIZE3Ezk7r-lWk-e4pLTHPH5enHVoCHz66XaALclVfLAGMT-CvBAauYPca2jMuuDajVGURi27d8gVgSKJmUDhIJWu715aVTYPj-WZd3X5i1Ji7fDV13LTk2lPfc5uGALuJLdH4vtYiFEqkgEdXn3gxCXUZRd0jbiQTPKevzHSDQ4tS0QxeLd-1tuRZYPEZuKJuKdcMr67Vxi6MLNfvPLv8O-fnmOHMR_t8eXt7TWY3lbUmYfNQa8-T8uXyBQ11IPRSYP7AxwbD_Z4PGzJJesf4EziT626Lstkj3prAULoxVRRc4oXxTFHgt91zJmeCpotG7zdzbx4735tzF_WZfuyu-TD_8l]--></g></svg>
