<svg xmlns="http://www.w3.org/2000/svg" xmlns:xlink="http://www.w3.org/1999/xlink" contentStyleType="text/css" height="793px" preserveAspectRatio="none" style="width:1276px;height:793px;background:#FFFFFF;" version="1.1" viewBox="0 0 1276 793" width="1276px" zoomAndPan="magnify"><title>Frequency Access Integration for an Application</title><defs/><g><text fill="#000000" font-family="sans-serif" font-size="14" font-weight="bold" lengthAdjust="spacing" textLength="380.9395" x="448.8103" y="27.9951">Frequency Access Integration for an Application</text><rect fill="none" height="436.6641" style="stroke:#000000;stroke-width:1.5;" width="1259.5601" x="10" y="304.3906"/><line style="stroke:#181818;stroke-width:0.5;stroke-dasharray:5.0,5.0;" x1="75" x2="75" y1="73.5938" y2="758.0547"/><line style="stroke:#181818;stroke-width:0.5;stroke-dasharray:5.0,5.0;" x1="424.8784" x2="424.8784" y1="73.5938" y2="758.0547"/><line style="stroke:#181818;stroke-width:0.5;stroke-dasharray:5.0,5.0;" x1="939.5659" x2="939.5659" y1="73.5938" y2="758.0547"/><line style="stroke:#181818;stroke-width:0.5;stroke-dasharray:5.0,5.0;" x1="1214.9097" x2="1214.9097" y1="73.5938" y2="758.0547"/><rect fill="#E2E2F0" height="30.2969" rx="2.5" ry="2.5" style="stroke:#181818;stroke-width:0.5;" width="111.5967" x="20" y="42.2969"/><text fill="#000000" font-family="sans-serif" font-size="14" lengthAdjust="spacing" textLength="97.5967" x="27" y="62.292">Website / App</text><rect fill="#E2E2F0" height="30.2969" rx="2.5" ry="2.5" style="stroke:#181818;stroke-width:0.5;" width="111.5967" x="20" y="757.0547"/><text fill="#000000" font-family="sans-serif" font-size="14" lengthAdjust="spacing" textLength="97.5967" x="27" y="777.0498">Website / App</text><rect fill="#E2E2F0" height="30.2969" rx="2.5" ry="2.5" style="stroke:#181818;stroke-width:0.5;" width="157.0352" x="346.8784" y="42.2969"/><text fill="#000000" font-family="sans-serif" font-size="14" lengthAdjust="spacing" textLength="143.0352" x="353.8784" y="62.292">Application Backend</text><rect fill="#E2E2F0" height="30.2969" rx="2.5" ry="2.5" style="stroke:#181818;stroke-width:0.5;" width="157.0352" x="346.8784" y="757.0547"/><text fill="#000000" font-family="sans-serif" font-size="14" lengthAdjust="spacing" textLength="143.0352" x="353.8784" y="777.0498">Application Backend</text><rect fill="#E2E2F0" height="30.2969" rx="2.5" ry="2.5" style="stroke:#181818;stroke-width:0.5;" width="140.2734" x="869.5659" y="42.2969"/><text fill="#000000" font-family="sans-serif" font-size="14" lengthAdjust="spacing" textLength="126.2734" x="876.5659" y="62.292">Frequency Access</text><rect fill="#E2E2F0" height="30.2969" rx="2.5" ry="2.5" style="stroke:#181818;stroke-width:0.5;" width="140.2734" x="869.5659" y="757.0547"/><text fill="#000000" font-family="sans-serif" font-size="14" lengthAdjust="spacing" textLength="126.2734" x="876.5659" y="777.0498">Frequency Access</text><rect fill="#E2E2F0" height="30.2969" rx="2.5" ry="2.5" style="stroke:#181818;stroke-width:0.5;" width="87.6504" x="1171.9097" y="42.2969"/><text fill="#000000" font-family="sans-serif" font-size="14" lengthAdjust="spacing" textLength="73.6504" x="1178.9097" y="62.292">Frequency</text><rect fill="#E2E2F0" height="30.2969" rx="2.5" ry="2.5" style="stroke:#181818;stroke-width:0.5;" width="87.6504" x="1171.9097" y="757.0547"/><text fill="#000000" font-family="sans-serif" font-size="14" lengthAdjust="spacing" textLength="73.6504" x="1178.9097" y="777.0498">Frequency</text><line style="stroke:#181818;stroke-width:1.0;" x1="425.396" x2="467.396" y1="104.7266" y2="104.7266"/><line style="stroke:#181818;stroke-width:1.0;" x1="467.396" x2="467.396" y1="104.7266" y2="117.7266"/><line style="stroke:#181818;stroke-width:1.0;" x1="426.396" x2="467.396" y1="117.7266" y2="117.7266"/><polygon fill="#181818" points="436.396,113.7266,426.396,117.7266,436.396,121.7266,432.396,117.7266" style="stroke:#181818;stroke-width:1.0;"/><text fill="#000000" font-family="sans-serif" font-size="13" font-weight="bold" lengthAdjust="spacing" textLength="9.0454" x="432.396" y="99.6606">1</text><text fill="#000000" font-family="sans-serif" font-size="13" lengthAdjust="spacing" textLength="266.0239" x="445.4414" y="99.6606">Generate &amp; Sign Request Payload (once)</text><line style="stroke:#181818;stroke-width:1.0;" x1="425.396" x2="467.396" y1="146.8594" y2="146.8594"/><line style="stroke:#181818;stroke-width:1.0;" x1="467.396" x2="467.396" y1="146.8594" y2="159.8594"/><line style="stroke:#181818;stroke-width:1.0;" x1="426.396" x2="467.396" y1="159.8594" y2="159.8594"/><polygon fill="#181818" points="436.396,155.8594,426.396,159.8594,436.396,163.8594,432.396,159.8594" style="stroke:#181818;stroke-width:1.0;"/><text fill="#000000" font-family="sans-serif" font-size="13" font-weight="bold" lengthAdjust="spacing" textLength="9.0454" x="432.396" y="141.7935">2</text><text fill="#000000" font-family="sans-serif" font-size="13" lengthAdjust="spacing" textLength="322.1816" x="445.4414" y="141.7935">Generate Redirect URL with correct callback path</text><polygon fill="#181818" points="86.7983,184.9922,76.7983,188.9922,86.7983,192.9922,82.7983,188.9922" style="stroke:#181818;stroke-width:1.0;"/><line style="stroke:#181818;stroke-width:1.0;" x1="80.7983" x2="424.396" y1="188.9922" y2="188.9922"/><text fill="#000000" font-family="sans-serif" font-size="13" font-weight="bold" lengthAdjust="spacing" textLength="9.0454" x="92.7983" y="183.9263">3</text><text fill="#000000" font-family="sans-serif" font-size="13" lengthAdjust="spacing" textLength="250.7451" x="105.8438" y="183.9263">Display Sign In With Frequency Button</text><polygon fill="#181818" points="927.7026,214.125,937.7026,218.125,927.7026,222.125,931.7026,218.125" style="stroke:#181818;stroke-width:1.0;"/><line style="stroke:#181818;stroke-width:1.0;" x1="75.7983" x2="933.7026" y1="218.125" y2="218.125"/><text fill="#000000" font-family="sans-serif" font-size="13" font-weight="bold" lengthAdjust="spacing" textLength="9.0454" x="82.7983" y="213.0591">4</text><text fill="#000000" font-family="sans-serif" font-size="13" lengthAdjust="spacing" textLength="478.0801" x="95.8438" y="213.0591">Click Sign In With Frequency Button (GET /siwa/api/request SiwaRequest)</text><line style="stroke:#181818;stroke-width:1.0;" x1="939.7026" x2="981.7026" y1="247.2578" y2="247.2578"/><line style="stroke:#181818;stroke-width:1.0;" x1="981.7026" x2="981.7026" y1="247.2578" y2="260.2578"/><line style="stroke:#181818;stroke-width:1.0;" x1="940.7026" x2="981.7026" y1="260.2578" y2="260.2578"/><polygon fill="#181818" points="950.7026,256.2578,940.7026,260.2578,950.7026,264.2578,946.7026,260.2578" style="stroke:#181818;stroke-width:1.0;"/><text fill="#000000" font-family="sans-serif" font-size="13" font-weight="bold" lengthAdjust="spacing" textLength="9.0454" x="946.7026" y="242.1919">5</text><text fill="#000000" font-family="sans-serif" font-size="13" lengthAdjust="spacing" textLength="248.9868" x="959.748" y="242.1919">User Authentication and Authorization</text><polygon fill="#181818" points="86.7983,285.3906,76.7983,289.3906,86.7983,293.3906,82.7983,289.3906" style="stroke:#181818;stroke-width:1.0;"/><line style="stroke:#181818;stroke-width:1.0;" x1="80.7983" x2="938.7026" y1="289.3906" y2="289.3906"/><text fill="#000000" font-family="sans-serif" font-size="13" font-weight="bold" lengthAdjust="spacing" textLength="9.0454" x="92.7983" y="284.3247">6</text><text fill="#000000" font-family="sans-serif" font-size="13" lengthAdjust="spacing" textLength="571.3652" x="105.8438" y="284.3247">Redirect to callback url from the SiwaRequest with authorizationCode parameter added</text><path d="M10,304.3906 L74.4429,304.3906 L74.4429,311.5234 L64.4429,321.5234 L10,321.5234 L10,304.3906 " fill="#EEEEEE" style="stroke:#000000;stroke-width:1.5;"/><rect fill="none" height="436.6641" style="stroke:#000000;stroke-width:1.5;" width="1259.5601" x="10" y="304.3906"/><text fill="#000000" font-family="sans-serif" font-size="13" font-weight="bold" lengthAdjust="spacing" textLength="19.4429" x="25" y="317.4575">alt</text><text fill="#000000" font-family="sans-serif" font-size="11" font-weight="bold" lengthAdjust="spacing" textLength="245.5449" x="89.4429" y="316.6011">[Application Backend resolves payload]</text><polygon fill="#181818" points="413.396,338.6563,423.396,342.6563,413.396,346.6563,417.396,342.6563" style="stroke:#181818;stroke-width:1.0;"/><line style="stroke:#181818;stroke-width:1.0;" x1="75.7983" x2="419.396" y1="342.6563" y2="342.6563"/><text fill="#000000" font-family="sans-serif" font-size="13" font-weight="bold" lengthAdjust="spacing" textLength="9.0454" x="82.7983" y="337.5903">7</text><text fill="#000000" font-family="sans-serif" font-size="13" lengthAdjust="spacing" textLength="312.5522" x="95.8438" y="337.5903">GET against callback url with authoricationCode</text><polygon fill="#181818" points="927.7026,367.7891,937.7026,371.7891,927.7026,375.7891,931.7026,371.7891" style="stroke:#181818;stroke-width:1.0;"/><line style="stroke:#181818;stroke-width:1.0;" x1="425.396" x2="933.7026" y1="371.7891" y2="371.7891"/><text fill="#000000" font-family="sans-serif" font-size="13" font-weight="bold" lengthAdjust="spacing" textLength="9.0454" x="432.396" y="366.7231">8</text><text fill="#000000" font-family="sans-serif" font-size="13" lengthAdjust="spacing" textLength="477.2612" x="445.4414" y="366.7231">GET /siwa/api/payload trade authorizationCode for SiwaPayloadResponse</text><polygon fill="#181818" points="436.396,396.9219,426.396,400.9219,436.396,404.9219,432.396,400.9219" style="stroke:#181818;stroke-width:1.0;"/><line style="stroke:#181818;stroke-width:1.0;stroke-dasharray:2.0,2.0;" x1="430.396" x2="938.7026" y1="400.9219" y2="400.9219"/><text fill="#000000" font-family="sans-serif" font-size="13" font-weight="bold" lengthAdjust="spacing" textLength="9.0454" x="442.396" y="395.856">9</text><text fill="#000000" font-family="sans-serif" font-size="13" lengthAdjust="spacing" textLength="375.9272" x="455.4414" y="395.856">SiwaPayloadResponse {signed payloads and credentials}</text><polygon fill="#181818" points="86.7983,426.0547,76.7983,430.0547,86.7983,434.0547,82.7983,430.0547" style="stroke:#181818;stroke-width:1.0;"/><line style="stroke:#181818;stroke-width:1.0;" x1="80.7983" x2="424.396" y1="430.0547" y2="430.0547"/><text fill="#000000" font-family="sans-serif" font-size="13" font-weight="bold" lengthAdjust="spacing" textLength="18.0908" x="92.7983" y="424.9888">10</text><text fill="#000000" font-family="sans-serif" font-size="13" lengthAdjust="spacing" textLength="122.8462" x="114.8892" y="424.9888">Post sign-in screen</text><polygon fill="#181818" points="1203.7349,455.1875,1213.7349,459.1875,1203.7349,463.1875,1207.7349,459.1875" style="stroke:#181818;stroke-width:1.0;"/><line style="stroke:#181818;stroke-width:1.0;" x1="425.396" x2="1209.7349" y1="459.1875" y2="459.1875"/><text fill="#000000" font-family="sans-serif" font-size="13" font-weight="bold" lengthAdjust="spacing" textLength="18.0908" x="432.396" y="454.1216">11</text><text fill="#000000" font-family="sans-serif" font-size="13" lengthAdjust="spacing" textLength="347.4009" x="454.4868" y="454.1216">If needed, submit required transactions to Frequency</text><polygon fill="#181818" points="436.396,484.3203,426.396,488.3203,436.396,492.3203,432.396,488.3203" style="stroke:#181818;stroke-width:1.0;"/><line style="stroke:#181818;stroke-width:1.0;stroke-dasharray:2.0,2.0;" x1="430.396" x2="1214.7349" y1="488.3203" y2="488.3203"/><text fill="#000000" font-family="sans-serif" font-size="13" font-weight="bold" lengthAdjust="spacing" textLength="18.0908" x="442.396" y="483.2544">12</text><text fill="#000000" font-family="sans-serif" font-size="13" lengthAdjust="spacing" textLength="117.4761" x="464.4868" y="483.2544">Transaction result</text><line style="stroke:#000000;stroke-width:1.0;stroke-dasharray:2.0,2.0;" x1="10" x2="1269.5601" y1="497.3203" y2="497.3203"/><text fill="#000000" font-family="sans-serif" font-size="11" font-weight="bold" lengthAdjust="spacing" textLength="187.8755" x="15" y="507.5308">[User Agent resolves payload]</text><line style="stroke:#181818;stroke-width:1.0;" x1="75.7983" x2="117.7983" y1="532.2578" y2="532.2578"/><line style="stroke:#181818;stroke-width:1.0;" x1="117.7983" x2="117.7983" y1="532.2578" y2="545.2578"/><line style="stroke:#181818;stroke-width:1.0;" x1="76.7983" x2="117.7983" y1="545.2578" y2="545.2578"/><polygon fill="#181818" points="86.7983,541.2578,76.7983,545.2578,86.7983,549.2578,82.7983,545.2578" style="stroke:#181818;stroke-width:1.0;"/><text fill="#000000" font-family="sans-serif" font-size="13" font-weight="bold" lengthAdjust="spacing" textLength="18.0908" x="82.7983" y="527.1919">13</text><text fill="#000000" font-family="sans-serif" font-size="13" lengthAdjust="spacing" textLength="224.6118" x="104.8892" y="527.1919">Pre-empted by OS (Universal Link)</text><polygon fill="#181818" points="927.7026,570.3906,937.7026,574.3906,927.7026,578.3906,931.7026,574.3906" style="stroke:#181818;stroke-width:1.0;"/><line style="stroke:#181818;stroke-width:1.0;" x1="75.7983" x2="933.7026" y1="574.3906" y2="574.3906"/><text fill="#000000" font-family="sans-serif" font-size="13" font-weight="bold" lengthAdjust="spacing" textLength="18.0908" x="82.7983" y="569.3247">14</text><text fill="#000000" font-family="sans-serif" font-size="13" lengthAdjust="spacing" textLength="477.2612" x="104.8892" y="569.3247">GET /siwa/api/payload trade authorizationCode for SiwaPayloadResponse</text><polygon fill="#181818" points="86.7983,599.5234,76.7983,603.5234,86.7983,607.5234,82.7983,603.5234" style="stroke:#181818;stroke-width:1.0;"/><line style="stroke:#181818;stroke-width:1.0;stroke-dasharray:2.0,2.0;" x1="80.7983" x2="938.7026" y1="603.5234" y2="603.5234"/><text fill="#000000" font-family="sans-serif" font-size="13" font-weight="bold" lengthAdjust="spacing" textLength="18.0908" x="92.7983" y="598.4575">15</text><text fill="#000000" font-family="sans-serif" font-size="13" lengthAdjust="spacing" textLength="375.9272" x="114.8892" y="598.4575">SiwaPayloadResponse {signed payloads and credentials}</text><line style="stroke:#181818;stroke-width:1.0;" x1="75.7983" x2="117.7983" y1="632.6563" y2="632.6563"/><line style="stroke:#181818;stroke-width:1.0;" x1="117.7983" x2="117.7983" y1="632.6563" y2="645.6563"/><line style="stroke:#181818;stroke-width:1.0;" x1="76.7983" x2="117.7983" y1="645.6563" y2="645.6563"/><polygon fill="#181818" points="86.7983,641.6563,76.7983,645.6563,86.7983,649.6563,82.7983,645.6563" style="stroke:#181818;stroke-width:1.0;"/><text fill="#000000" font-family="sans-serif" font-size="13" font-weight="bold" lengthAdjust="spacing" textLength="18.0908" x="82.7983" y="627.5903">16</text><text fill="#000000" font-family="sans-serif" font-size="13" lengthAdjust="spacing" textLength="122.8462" x="104.8892" y="627.5903">Post sign-in screen</text><polygon fill="#181818" points="413.396,670.7891,423.396,674.7891,413.396,678.7891,417.396,674.7891" style="stroke:#181818;stroke-width:1.0;"/><line style="stroke:#181818;stroke-width:1.0;" x1="75.7983" x2="419.396" y1="674.7891" y2="674.7891"/><text fill="#000000" font-family="sans-serif" font-size="13" font-weight="bold" lengthAdjust="spacing" textLength="18.0908" x="82.7983" y="669.7231">17</text><text fill="#000000" font-family="sans-serif" font-size="13" lengthAdjust="spacing" textLength="85.5347" x="104.8892" y="669.7231">Sign in result</text><polygon fill="#181818" points="1203.7349,699.9219,1213.7349,703.9219,1203.7349,707.9219,1207.7349,703.9219" style="stroke:#181818;stroke-width:1.0;"/><line style="stroke:#181818;stroke-width:1.0;" x1="425.396" x2="1209.7349" y1="703.9219" y2="703.9219"/><text fill="#000000" font-family="sans-serif" font-size="13" font-weight="bold" lengthAdjust="spacing" textLength="18.0908" x="432.396" y="698.856">18</text><text fill="#000000" font-family="sans-serif" font-size="13" lengthAdjust="spacing" textLength="347.4009" x="454.4868" y="698.856">If needed, submit required transactions to Frequency</text><polygon fill="#181818" points="436.396,729.0547,426.396,733.0547,436.396,737.0547,432.396,733.0547" style="stroke:#181818;stroke-width:1.0;"/><line style="stroke:#181818;stroke-width:1.0;stroke-dasharray:2.0,2.0;" x1="430.396" x2="1214.7349" y1="733.0547" y2="733.0547"/><text fill="#000000" font-family="sans-serif" font-size="13" font-weight="bold" lengthAdjust="spacing" textLength="18.0908" x="442.396" y="727.9888">19</text><text fill="#000000" font-family="sans-serif" font-size="13" lengthAdjust="spacing" textLength="117.4761" x="464.4868" y="727.9888">Transaction result</text><!--SRC=[pPD1Rnen48Nl-oj672gGYhXpY4JIDaAAr0Y2SfwrPy72QxlsE16j-jzhUvS5aj1RfUvn_CRplJTULgm9Hjyy_OXan04MGb08i3HCMu-ih876Ua032-Uq4gKqgXnwLa8vD0oZPwg3Oe9Prem00qIyL9prmYsAFHbPTEvIzXQZQ1gy8YgdjQWgZ6nDR6lobPlUk3dSaw44J_09rcfhO9Kx0iCZ7hH52MDh14tUYbSabIV1i5azmAlY7GZhIq6WrdN21eUyosqHv_151QVnq4rO6dZE7IS7jv4JLHLnUjCazLtol_-x5iRtNvzW5jGhpj2fcU-frwdGEvXKJN_V9f27HUGT6JucYqQMalNgPwaKTMOThB4zcObUG-Dj2-cIyo6TTpo_wCvAIkOzjiHfBaf9iaBDyC5YmLEm-eNIThkuAqXVpY67dHpY5fK9V0boFbCCCqkhwnnVXjFV3UmneRs7pOysU-fNlgBWh0dTXPuuUlFHCVmAQKCaZ-YXP2eyoHmpwl3xI9HJVRJ9HMwOAWCXgSWSZsinXsK3XbAd_0mXrgrYo1jDUoZK9g38j27lP7WAvtnF9r7ED6gkI2V6RlNRH7GzweBdQKgjupIlFi3tDOmtHhsG3wZXGPdzP53_P_4E1gxasx-byZEf8Pj_dBoHVm00]--></g></svg>